<!DOCTYPE svg PUBLIC "-//W3C//DTD SVG 20010904//EN" "http://www.w3.org/TR/2001/REC-SVG-20010904/DTD/svg10.dtd">
<svg version="1.0" xmlns="http://www.w3.org/2000/svg" width="460px" height="105px" viewBox="0 0 4600 1050" preserveAspectRatio="xMidYMid meet">
<g id="layer101" fill="#000000" stroke="none">
 <path d="M2002 855 c-49 -15 -117 -59 -138 -89 -13 -19 -14 -16 -14 37 l0 57 -195 0 -195 0 0 -305 0 -305 95 0 95 0 0 220 0 220 86 0 c74 0 85 -2 80 -16 -3 -9 -9 -54 -12 -100 -6 -78 -9 -85 -30 -90 -56 -14 -12 -150 72 -224 89 -77 221 -106 234 -50 5 23 12 26 72 32 78 7 140 33 191 78 l37 32 0 -28 c0 -16 3 -39 6 -51 l6 -23 387 0 c398 0 452 5 503 41 32 23 68 86 68 121 1 20 3 19 14 -8 23 -52 82 -110 139 -135 44 -20 67 -24 152 -23 116 1 153 13 220 75 62 58 87 121 87 229 0 97 -12 148 -50 200 -58 81 -141 119 -258 120 -96 0 -161 -21 -218 -71 -58 -52 -87 -106 -93 -180 l-6 -57 -29 34 -29 33 45 84 c27 49 46 97 46 116 l0 31 -103 0 -102 0 -50 -97 -50 -98 -3 98 -3 97 -94 0 -95 0 0 -220 0 -220 -75 0 -75 0 0 220 0 220 -95 0 -95 0 0 -220 0 -220 -59 0 -60 0 10 32 c14 51 11 169 -7 228 -22 74 -100 152 -174 174 -65 19 -179 20 -238 1z m194 -219 c32 -32 44 -51 44 -73 0 -38 -36 -91 -77 -116 l-33 -19 7 76 6 76 -35 0 c-20 0 -54 -7 -77 -15 -31 -10 -41 -11 -41 -2 0 24 40 77 72 97 53 32 84 26 134 -24z m1512 24 c18 -11 42 -39 54 -64 l21 -44 -26 -45 c-30 -50 -84 -82 -123 -73 -34 9 -90 61 -102 95 -20 58 53 150 118 151 14 0 40 -9 58 -20z m-577 -179 c23 -19 24 -19 5 -40 -11 -12 -31 -21 -48 -21 -26 0 -28 3 -28 40 0 36 3 40 24 40 13 0 34 -9 47 -19z"/>
 <path d="M60 775 l0 -85 48 0 c27 0 57 -7 70 -16 22 -15 22 -20 22 -220 l0 -204 95 0 95 0 0 218 1 217 82 -218 82 -218 104 3 103 3 97 246 96 247 3 -250 2 -250 178 4 c194 5 231 13 271 64 20 26 22 38 19 111 -2 61 -7 87 -20 99 -16 16 -16 19 7 46 21 25 25 40 25 99 0 88 -16 120 -78 156 l-47 28 -272 3 -272 3 -18 -51 -18 -51 -79 3 -78 3 -17 45 -17 45 -97 3 c-92 3 -97 2 -97 -17 0 -21 0 -21 -32 -1 -28 17 -51 20 -145 20 l-113 0 0 -85z m1169 -99 c10 -12 8 -17 -8 -25 -11 -6 -31 -11 -45 -11 -21 0 -26 5 -26 25 0 22 4 25 34 25 18 0 39 -6 45 -14z m-559 -98 c0 -7 -4 -19 -9 -26 -7 -11 -10 -10 -15 3 -10 26 -7 35 9 35 8 0 15 -6 15 -12z m555 -122 c18 -13 18 -14 -3 -25 -11 -6 -32 -11 -46 -11 -21 0 -26 5 -26 25 0 21 5 25 28 25 16 0 37 -6 47 -14z"/>
 <path d="M3980 555 l0 -305 113 0 112 0 80 128 80 127 3 -127 3 -128 89 0 90 0 0 305 0 305 -107 0 -108 -1 -87 -141 -88 -141 0 141 0 142 -90 0 -90 0 0 -305z"/>
 </g>
<g id="layer102" fill="#fbb900" stroke="none">
 <path d="M2002 855 c-49 -15 -117 -59 -138 -89 -13 -19 -14 -16 -14 37 l0 57 -195 0 -195 0 0 -305 0 -305 95 0 95 0 0 220 0 220 86 0 c74 0 85 -2 80 -16 -3 -9 -9 -54 -12 -100 -6 -78 -9 -85 -30 -90 -56 -14 -12 -150 72 -224 89 -77 221 -106 234 -50 5 23 12 26 72 32 78 7 140 33 191 78 l37 32 0 -28 c0 -16 3 -39 6 -51 l6 -23 387 0 c398 0 452 5 503 41 32 23 68 86 68 121 1 20 3 19 14 -8 23 -52 82 -110 139 -135 44 -20 67 -24 152 -23 116 1 153 13 220 75 62 58 87 121 87 229 0 97 -12 148 -50 200 -58 81 -141 119 -258 120 -96 0 -161 -21 -218 -71 -58 -52 -87 -106 -93 -180 l-6 -57 -29 34 -29 33 45 84 c27 49 46 97 46 116 l0 31 -103 0 -102 0 -50 -97 -50 -98 -3 98 -3 97 -94 0 -95 0 0 -220 0 -220 -75 0 -75 0 0 220 0 220 -95 0 -95 0 0 -220 0 -220 -59 0 -60 0 10 32 c14 51 11 169 -7 228 -22 74 -100 152 -174 174 -65 19 -179 20 -238 1z m208 -31 c76 -23 153 -100 176 -179 51 -178 -53 -342 -236 -371 -39 -6 -43 -5 -36 12 4 10 10 37 13 61 5 39 10 45 47 62 49 22 70 43 91 95 47 111 -66 238 -184 206 -68 -18 -121 -76 -121 -132 0 -20 -8 -26 -47 -37 -27 -7 -56 -15 -65 -18 -14 -4 -16 2 -12 54 10 117 78 207 188 245 64 22 117 22 186 2z m1561 -11 c52 -24 111 -80 135 -132 11 -21 20 -67 22 -112 5 -95 -20 -160 -83 -218 -60 -55 -107 -74 -190 -75 -127 -1 -233 71 -271 186 -21 65 -15 167 14 224 28 55 104 121 161 139 59 19 154 14 212 -12z m-1951 -38 l0 -55 -100 0 -100 0 0 -220 0 -220 -65 0 -65 0 0 275 0 275 165 0 165 0 0 -55z m870 -165 l0 -220 80 0 80 0 0 -55 0 -55 -214 0 -214 0 -4 55 -3 55 73 0 72 0 0 220 0 220 65 0 65 0 0 -220z m340 119 l0 -100 33 3 c30 3 36 10 82 100 l50 98 73 0 74 0 -37 -67 c-21 -38 -48 -86 -61 -108 l-23 -41 35 -28 c64 -51 81 -133 44 -206 -40 -78 -100 -99 -282 -100 l-118 0 0 275 0 275 65 0 65 0 0 -101z m-834 -93 c32 -32 44 -51 44 -73 0 -38 -36 -91 -77 -116 l-33 -19 7 76 6 76 -35 0 c-20 0 -54 -7 -77 -15 -31 -10 -41 -11 -41 -2 0 24 40 77 72 97 53 32 84 26 134 -24z"/>
 <path d="M3603 709 c-43 -13 -90 -62 -104 -109 -30 -100 46 -200 151 -200 60 0 107 26 135 75 74 125 -43 276 -182 234z m105 -49 c18 -11 42 -39 54 -64 l21 -44 -26 -45 c-30 -50 -84 -82 -123 -73 -34 9 -90 61 -102 95 -20 58 53 150 118 151 14 0 40 -9 58 -20z"/>
 <path d="M3030 460 l0 -70 58 0 c48 0 62 4 80 23 29 30 28 62 -3 92 -20 21 -34 25 -80 25 l-55 0 0 -70z m101 21 c23 -19 24 -19 5 -40 -11 -12 -31 -21 -48 -21 -26 0 -28 3 -28 40 0 36 3 40 24 40 13 0 34 -9 47 -19z"/>
 <path d="M60 775 l0 -85 48 0 c27 0 57 -7 70 -16 22 -15 22 -20 22 -220 l0 -204 95 0 95 0 0 218 1 217 82 -218 82 -218 104 3 103 3 97 246 96 247 3 -250 2 -250 178 4 c194 5 231 13 271 64 20 26 22 38 19 111 -2 61 -7 87 -20 99 -16 16 -16 19 7 46 21 25 25 40 25 99 0 88 -16 120 -78 156 l-47 28 -272 3 -272 3 -18 -51 -18 -51 -79 3 -78 3 -17 45 -17 45 -97 3 c-92 3 -97 2 -97 -17 0 -21 0 -21 -32 -1 -28 17 -51 20 -145 20 l-113 0 0 -85z m227 35 c62 -38 68 -60 71 -307 l3 -223 -65 0 -66 0 0 205 0 205 -27 17 c-17 11 -43 17 -70 16 l-43 -1 0 54 0 54 83 0 c64 0 89 -4 114 -20z m244 -30 l17 -45 108 -3 109 -3 18 51 18 50 69 0 c39 0 70 -3 70 -8 0 -4 -47 -126 -104 -272 l-104 -265 -73 -3 -74 -3 -100 267 c-55 146 -102 271 -103 276 -2 5 25 8 64 6 l69 -3 16 -45z m801 17 c55 -32 78 -69 78 -125 0 -45 -26 -84 -72 -108 l-29 -15 33 -22 c88 -60 76 -183 -21 -225 -25 -11 -81 -17 -183 -20 l-148 -4 0 277 0 277 148 -3 c140 -4 149 -5 194 -32z"/>
 <path d="M590 611 c0 -22 64 -181 70 -174 9 10 60 157 60 172 0 7 -25 11 -65 11 -36 0 -65 -4 -65 -9z m80 -33 c0 -7 -4 -19 -9 -26 -7 -11 -10 -10 -15 3 -10 26 -7 35 9 35 8 0 15 -6 15 -12z"/>
 <path d="M1120 665 l0 -55 58 0 c66 0 102 19 102 54 0 39 -30 56 -98 56 l-62 0 0 -55z m109 11 c10 -12 8 -17 -8 -25 -11 -6 -31 -11 -45 -11 -21 0 -26 5 -26 25 0 22 4 25 34 25 18 0 39 -6 45 -14z"/>
 <path d="M1120 445 l0 -55 56 0 c74 0 94 12 94 55 0 43 -20 55 -94 55 l-56 0 0 -55z m105 11 c18 -13 18 -14 -3 -25 -11 -6 -32 -11 -46 -11 -21 0 -26 5 -26 25 0 21 5 25 28 25 16 0 37 -6 47 -14z"/>
 <path d="M3980 555 l0 -305 113 0 112 0 80 128 80 127 3 -127 3 -128 89 0 90 0 0 305 0 305 -107 0 -108 -1 -87 -141 -88 -141 0 141 0 142 -90 0 -90 0 0 -305z m150 95 c0 -99 3 -180 8 -180 4 1 57 82 117 180 l110 179 78 1 77 0 0 -275 0 -275 -60 0 -60 0 0 171 c0 93 -4 168 -9 165 -4 -3 -55 -80 -112 -171 l-104 -165 -82 0 -83 0 0 275 0 275 60 0 60 0 0 -180z"/>
 </g>
<g id="layer103" fill="#fce5a4" stroke="none">
 <path d="M2002 855 c-49 -15 -117 -59 -138 -89 -13 -19 -14 -16 -14 37 l0 57 -195 0 -195 0 0 -305 0 -305 95 0 95 0 0 220 0 220 86 0 c74 0 85 -2 80 -16 -3 -9 -9 -54 -12 -100 -6 -78 -9 -85 -30 -90 -56 -14 -12 -150 72 -224 89 -77 221 -106 234 -50 5 23 12 26 72 32 78 7 140 33 191 78 l37 32 0 -28 c0 -16 3 -39 6 -51 l6 -23 387 0 c398 0 452 5 503 41 32 23 68 86 68 121 1 20 3 19 14 -8 23 -52 82 -110 139 -135 44 -20 67 -24 152 -23 116 1 153 13 220 75 62 58 87 121 87 229 0 97 -12 148 -50 200 -58 81 -141 119 -258 120 -96 0 -161 -21 -218 -71 -58 -52 -87 -106 -93 -180 l-6 -57 -29 34 -29 33 45 84 c27 49 46 97 46 116 l0 31 -103 0 -102 0 -50 -97 -50 -98 -3 98 -3 97 -94 0 -95 0 0 -220 0 -220 -75 0 -75 0 0 220 0 220 -95 0 -95 0 0 -220 0 -220 -59 0 -60 0 10 32 c14 51 11 169 -7 228 -22 74 -100 152 -174 174 -65 19 -179 20 -238 1z m208 -31 c76 -23 153 -100 176 -179 51 -178 -53 -342 -236 -371 -39 -6 -43 -5 -36 12 4 10 10 37 13 61 5 39 10 45 47 62 49 22 70 43 91 95 47 111 -66 238 -184 206 -68 -18 -121 -76 -121 -132 0 -20 -8 -26 -47 -37 -27 -7 -56 -15 -65 -18 -14 -4 -16 2 -12 54 10 117 78 207 188 245 64 22 117 22 186 2z m1561 -11 c52 -24 111 -80 135 -132 11 -21 20 -67 22 -112 5 -95 -20 -160 -83 -218 -60 -55 -107 -74 -190 -75 -127 -1 -233 71 -271 186 -21 65 -15 167 14 224 28 55 104 121 161 139 59 19 154 14 212 -12z m-1951 -38 l0 -55 -100 0 -100 0 0 -220 0 -220 -65 0 -65 0 0 275 0 275 165 0 165 0 0 -55z m870 -165 l0 -220 80 0 80 0 0 -55 0 -55 -214 0 -214 0 -4 55 -3 55 73 0 72 0 0 220 0 220 65 0 65 0 0 -220z m340 119 l0 -100 33 3 c30 3 36 10 82 100 l50 98 73 0 74 0 -37 -67 c-21 -38 -48 -86 -61 -108 l-23 -41 35 -28 c64 -51 81 -133 44 -206 -40 -78 -100 -99 -282 -100 l-118 0 0 275 0 275 65 0 65 0 0 -101z m-834 -93 c32 -32 44 -51 44 -73 0 -38 -36 -91 -77 -116 l-33 -19 7 76 6 76 -35 0 c-20 0 -54 -7 -77 -15 -31 -10 -41 -11 -41 -2 0 24 40 77 72 97 53 32 84 26 134 -24z m-86 -93 c0 -40 -66 -326 -76 -330 -20 -8 -117 41 -162 81 -37 34 -102 139 -92 149 5 5 308 104 323 106 4 1 7 -2 7 -6z"/>
 <path d="M3603 709 c-43 -13 -90 -62 -104 -109 -30 -100 46 -200 151 -200 60 0 107 26 135 75 74 125 -43 276 -182 234z m105 -49 c18 -11 42 -39 54 -64 l21 -44 -26 -45 c-30 -50 -84 -82 -123 -73 -34 9 -90 61 -102 95 -20 58 53 150 118 151 14 0 40 -9 58 -20z"/>
 <path d="M3030 460 l0 -70 58 0 c48 0 62 4 80 23 29 30 28 62 -3 92 -20 21 -34 25 -80 25 l-55 0 0 -70z m101 21 c23 -19 24 -19 5 -40 -11 -12 -31 -21 -48 -21 -26 0 -28 3 -28 40 0 36 3 40 24 40 13 0 34 -9 47 -19z"/>
 <path d="M60 775 l0 -85 48 0 c27 0 57 -7 70 -16 22 -15 22 -20 22 -220 l0 -204 95 0 95 0 0 218 1 217 82 -218 82 -218 104 3 103 3 97 246 96 247 3 -250 2 -250 178 4 c194 5 231 13 271 64 20 26 22 38 19 111 -2 61 -7 87 -20 99 -16 16 -16 19 7 46 21 25 25 40 25 99 0 88 -16 120 -78 156 l-47 28 -272 3 -272 3 -18 -51 -18 -51 -79 3 -78 3 -17 45 -17 45 -97 3 c-92 3 -97 2 -97 -17 0 -21 0 -21 -32 -1 -28 17 -51 20 -145 20 l-113 0 0 -85z m227 35 c62 -38 68 -60 71 -307 l3 -223 -65 0 -66 0 0 205 0 205 -27 17 c-17 11 -43 17 -70 16 l-43 -1 0 54 0 54 83 0 c64 0 89 -4 114 -20z m244 -30 l17 -45 108 -3 109 -3 18 51 18 50 69 0 c39 0 70 -3 70 -8 0 -4 -47 -126 -104 -272 l-104 -265 -73 -3 -74 -3 -100 267 c-55 146 -102 271 -103 276 -2 5 25 8 64 6 l69 -3 16 -45z m801 17 c55 -32 78 -69 78 -125 0 -45 -26 -84 -72 -108 l-29 -15 33 -22 c88 -60 76 -183 -21 -225 -25 -11 -81 -17 -183 -20 l-148 -4 0 277 0 277 148 -3 c140 -4 149 -5 194 -32z"/>
 <path d="M590 611 c0 -22 64 -181 70 -174 9 10 60 157 60 172 0 7 -25 11 -65 11 -36 0 -65 -4 -65 -9z m80 -33 c0 -7 -4 -19 -9 -26 -7 -11 -10 -10 -15 3 -10 26 -7 35 9 35 8 0 15 -6 15 -12z"/>
 <path d="M1120 665 l0 -55 58 0 c66 0 102 19 102 54 0 39 -30 56 -98 56 l-62 0 0 -55z m109 11 c10 -12 8 -17 -8 -25 -11 -6 -31 -11 -45 -11 -21 0 -26 5 -26 25 0 22 4 25 34 25 18 0 39 -6 45 -14z"/>
 <path d="M1120 445 l0 -55 56 0 c74 0 94 12 94 55 0 43 -20 55 -94 55 l-56 0 0 -55z m105 11 c18 -13 18 -14 -3 -25 -11 -6 -32 -11 -46 -11 -21 0 -26 5 -26 25 0 21 5 25 28 25 16 0 37 -6 47 -14z"/>
 <path d="M3980 555 l0 -305 113 0 112 0 80 128 80 127 3 -127 3 -128 89 0 90 0 0 305 0 305 -107 0 -108 -1 -87 -141 -88 -141 0 141 0 142 -90 0 -90 0 0 -305z m150 95 c0 -99 3 -180 8 -180 4 1 57 82 117 180 l110 179 78 1 77 0 0 -275 0 -275 -60 0 -60 0 0 171 c0 93 -4 168 -9 165 -4 -3 -55 -80 -112 -171 l-104 -165 -82 0 -83 0 0 275 0 275 60 0 60 0 0 -180z"/>
 </g>
<g id="layer104" fill="#ffffff" stroke="none">
 <path d="M2002 855 c-49 -15 -117 -59 -138 -89 -13 -19 -14 -16 -14 37 l0 57 -195 0 -195 0 0 -305 0 -305 95 0 95 0 0 220 0 220 86 0 c74 0 85 -2 80 -16 -3 -9 -9 -54 -12 -100 -6 -78 -9 -85 -30 -90 -56 -14 -12 -150 72 -224 89 -77 221 -106 234 -50 5 23 12 26 72 32 78 7 140 33 191 78 l37 32 0 -28 c0 -16 3 -39 6 -51 l6 -23 387 0 c398 0 452 5 503 41 32 23 68 86 68 121 1 20 3 19 14 -8 23 -52 82 -110 139 -135 44 -20 67 -24 152 -23 116 1 153 13 220 75 62 58 87 121 87 229 0 97 -12 148 -50 200 -58 81 -141 119 -258 120 -96 0 -161 -21 -218 -71 -58 -52 -87 -106 -93 -180 l-6 -57 -29 34 -29 33 45 84 c27 49 46 97 46 116 l0 31 -103 0 -102 0 -50 -97 -50 -98 -3 98 -3 97 -94 0 -95 0 0 -220 0 -220 -75 0 -75 0 0 220 0 220 -95 0 -95 0 0 -220 0 -220 -59 0 -60 0 10 32 c14 51 11 169 -7 228 -22 74 -100 152 -174 174 -65 19 -179 20 -238 1z m208 -31 c76 -23 153 -100 176 -179 51 -178 -53 -342 -236 -371 -39 -6 -43 -5 -36 12 4 10 10 37 13 61 5 39 10 45 47 62 49 22 70 43 91 95 47 111 -66 238 -184 206 -68 -18 -121 -76 -121 -132 0 -20 -8 -26 -47 -37 -27 -7 -56 -15 -65 -18 -14 -4 -16 2 -12 54 15 188 188 302 374 247z m1536 -2 c154 -54 229 -229 163 -382 -45 -104 -171 -180 -279 -167 -164 20 -269 144 -258 306 6 82 33 136 94 190 77 68 180 87 280 53z m-1926 -47 l0 -55 -100 0 -100 0 0 -220 0 -220 -65 0 -65 0 0 275 0 275 165 0 165 0 0 -55z m870 -165 l0 -220 80 0 80 0 0 -55 0 -55 -216 2 -216 3 -2 53 -1 52 73 0 72 0 0 220 0 220 65 0 65 0 0 -220z m340 119 l0 -100 33 3 c30 3 36 10 82 100 l50 98 73 0 74 0 -42 -77 c-24 -42 -51 -90 -60 -106 l-18 -29 35 -31 c64 -56 80 -134 43 -207 -40 -78 -100 -100 -277 -100 l-123 0 0 275 0 275 65 0 65 0 0 -101z m-834 -93 c32 -32 44 -51 44 -73 0 -38 -36 -91 -77 -116 l-33 -19 7 76 6 76 -35 0 c-20 0 -54 -7 -77 -15 -31 -10 -41 -11 -41 -2 0 24 40 77 72 97 53 32 84 26 134 -24z m-86 -93 c0 -5 -14 -81 -32 -170 -26 -130 -36 -163 -49 -163 -32 0 -138 62 -173 101 -36 39 -84 124 -75 133 4 4 309 104 322 105 4 1 7 -2 7 -6z"/>
 <path d="M3603 709 c-43 -13 -90 -62 -104 -109 -30 -100 46 -200 151 -200 123 0 198 128 137 234 -36 64 -114 96 -184 75z m105 -49 c18 -11 42 -39 54 -64 l21 -44 -26 -45 c-30 -50 -84 -82 -123 -73 -34 9 -90 61 -102 95 -20 58 53 150 118 151 14 0 40 -9 58 -20z"/>
 <path d="M3030 460 l0 -70 58 0 c48 0 62 4 80 23 29 30 28 62 -3 92 -20 21 -34 25 -80 25 l-55 0 0 -70z m101 21 c23 -19 24 -19 5 -40 -11 -12 -31 -21 -48 -21 -26 0 -28 3 -28 40 0 36 3 40 24 40 13 0 34 -9 47 -19z"/>
 <path d="M60 775 l0 -85 48 0 c27 0 57 -7 70 -16 22 -15 22 -20 22 -220 l0 -204 95 0 95 0 0 218 1 217 82 -218 82 -218 104 3 103 3 97 246 96 247 3 -250 2 -250 178 4 c194 5 231 13 271 64 20 26 22 38 19 111 -2 61 -7 87 -20 99 -16 16 -16 19 7 46 21 25 25 40 25 99 0 88 -16 120 -78 156 l-47 28 -272 3 -272 3 -18 -51 -18 -51 -79 3 -78 3 -17 45 -17 45 -97 3 c-92 3 -97 2 -97 -17 0 -21 0 -21 -32 -1 -28 17 -51 20 -145 20 l-113 0 0 -85z m227 35 c62 -38 68 -60 71 -307 l3 -223 -65 0 -66 0 0 205 0 205 -27 17 c-17 11 -43 17 -70 16 l-43 -1 0 54 0 54 83 0 c64 0 89 -4 114 -20z m244 -30 l17 -45 108 -3 109 -3 18 51 18 50 69 0 c39 0 70 -3 70 -8 0 -4 -47 -126 -104 -272 l-104 -265 -73 -3 -74 -3 -100 267 c-55 146 -102 271 -103 276 -2 5 25 8 64 6 l69 -3 16 -45z m800 18 c59 -35 79 -66 79 -122 0 -50 -34 -100 -78 -117 l-24 -9 33 -23 c43 -29 59 -60 59 -116 0 -35 -6 -49 -33 -76 -42 -42 -103 -55 -257 -55 l-120 0 0 276 0 276 148 -3 c138 -4 150 -6 193 -31z"/>
 <path d="M590 611 c0 -22 64 -181 70 -174 9 10 60 157 60 172 0 7 -25 11 -65 11 -36 0 -65 -4 -65 -9z m80 -33 c0 -7 -4 -19 -9 -26 -7 -11 -10 -10 -15 3 -10 26 -7 35 9 35 8 0 15 -6 15 -12z"/>
 <path d="M1120 665 l0 -55 58 0 c66 0 102 19 102 54 0 39 -30 56 -98 56 l-62 0 0 -55z m109 11 c10 -12 8 -17 -8 -25 -11 -6 -31 -11 -45 -11 -21 0 -26 5 -26 25 0 22 4 25 34 25 18 0 39 -6 45 -14z"/>
 <path d="M1120 445 l0 -55 59 0 c68 0 91 15 91 60 0 38 -23 50 -94 50 l-56 0 0 -55z m105 11 c18 -13 18 -14 -3 -25 -11 -6 -32 -11 -46 -11 -21 0 -26 5 -26 25 0 21 5 25 28 25 16 0 37 -6 47 -14z"/>
 <path d="M3980 555 l0 -305 113 0 112 0 80 128 80 127 3 -127 3 -128 89 0 90 0 0 305 0 305 -107 0 -108 -1 -87 -141 -88 -141 0 141 0 142 -90 0 -90 0 0 -305z m150 95 c0 -99 3 -180 8 -180 4 1 57 82 117 180 l110 179 78 1 77 0 0 -275 0 -275 -60 0 -60 0 0 171 c0 93 -4 168 -9 165 -4 -3 -55 -80 -112 -171 l-104 -165 -82 0 -83 0 0 275 0 275 60 0 60 0 0 -180z"/>
 </g>

</svg>